<svg xmlns="http://www.w3.org/2000/svg" xmlns:xlink="http://www.w3.org/1999/xlink" preserveAspectRatio="xMidYMid" width="56" height="56" viewBox="0 0 56 56">
  <defs>
    <radialGradient id="Gradient1">
      <stop offset="0%" stop-color="#C6E6F9" stop-opacity="0.9"/>
      <stop offset="100%" stop-color="#C6E6F9" stop-opacity="0.2"/>
    </radialGradient>
    <linearGradient id="Gradient2" x1="0" x2="1" y1="0" y2="1">
      <stop offset="0%" stop-color="#64D9FD"/>
      <stop offset="100%" stop-color="#5DAFEE"/>
    </linearGradient>
  </defs>
  <g>
    <circle cx="28" cy="28" r="28" style="fill: #eefaff;"/>
    <path d="M43.223,50.294 C43.072,50.226 42.913,50.174 42.765,50.102 C42.732,50.292 42.683,50.476 42.643,50.664 C38.423,53.397 33.403,55.000 28.000,55.000 C13.088,55.000 1.000,42.912 1.000,28.000 C1.000,27.582 1.044,27.175 1.063,26.762 C2.454,26.277 3.943,26.000 5.500,26.000 C11.408,26.000 16.416,29.801 18.247,35.086 C20.831,33.156 24.027,32.000 27.500,32.000 C29.072,32.000 30.587,32.238 32.017,32.673 C32.193,22.332 40.617,14.000 51.000,14.000 C51.019,14.000 51.037,14.003 51.056,14.003 C53.542,18.088 55.000,22.868 55.000,28.000 C55.000,37.263 50.331,45.431 43.223,50.294 Z" style="fill: url(#Gradient1);"/>
    <path d="M26.500,33.000 C25.672,33.000 25.000,32.328 25.000,31.500 L25.000,24.000 C25.000,23.172 25.672,22.000 26.500,22.000 C27.329,22.000 28.000,22.500 28.000,24.000 L28.000,30.000 L31.000,30.000 C32.500,30.000 33.000,30.672 33.000,31.500 C33.000,32.329 32.500,33.000 31.000,33.000 L26.500,33.000 ZM38.166,39.868 C37.620,39.953 37.105,39.594 37.013,39.049 C36.921,38.505 37.287,37.988 37.832,37.896 C41.406,37.290 44.000,34.215 44.000,30.583 C44.000,26.576 40.860,23.325 36.853,23.181 C36.405,23.165 36.023,22.854 35.917,22.419 C34.995,18.640 31.637,16.000 27.750,16.000 C23.156,16.000 19.465,19.600 19.346,24.196 C19.331,24.734 18.894,25.165 18.356,25.170 C14.851,25.203 12.000,28.080 12.000,31.583 C12.000,35.121 14.879,38.000 18.417,38.000 L33.000,38.000 C33.553,38.000 34.000,38.447 34.000,39.000 C34.000,39.553 33.553,40.000 33.000,40.000 L18.417,40.000 C13.775,40.000 10.000,36.225 10.000,31.583 C10.000,27.302 13.247,23.732 17.408,23.231 C17.992,17.985 22.372,14.000 27.750,14.000 C32.315,14.000 36.291,16.941 37.661,21.237 C42.394,21.771 46.000,25.743 46.000,30.583 C46.000,35.193 42.705,39.099 38.166,39.868 Z" style="fill: url(#Gradient2);"/>
  </g>
</svg>
