<svg xmlns="http://www.w3.org/2000/svg" xmlns:xlink="http://www.w3.org/1999/xlink" preserveAspectRatio="xMidYMid" width="56" height="56" viewBox="0 0 56 56">
  <defs>
    <radialGradient id="Gradient1">
      <stop offset="0%" stop-color="#FCD5D2" stop-opacity="0.9"/>
      <stop offset="100%" stop-color="#FCD5D2" stop-opacity="0.3"/>
    </radialGradient>
    <linearGradient id="Gradient2" x1="0" x2="1" y1="0" y2="1">
      <stop offset="0%" stop-color="#F85B4B"/>
      <stop offset="100%" stop-color="#FA567C"/>
    </linearGradient>
  </defs>
  <g>
    <circle cx="28" cy="28" r="28" style="fill: #fff0f0;"/>
    <path d="M3.125,16.808 L28.000,28.000 L16.808,3.125 C10.743,5.858 5.859,10.745 3.125,16.808 ZM52.875,39.192 L28.000,28.000 L39.192,52.875 C45.256,50.142 50.140,45.255 52.875,39.192 ZM16.808,52.875 L28.000,28.000 L3.125,39.192 C5.859,45.255 10.743,50.142 16.808,52.875 ZM39.192,3.125 L28.000,28.000 L52.875,16.808 C50.140,10.745 45.256,5.858 39.192,3.125 Z" style="fill: url(#Gradient1);"/>
    <path d="M33.000,28.000 C33.000,30.761 30.761,33.000 28.000,33.000 C25.530,33.000 23.480,31.209 23.075,28.855 L17.000,17.000 L28.855,23.075 C31.209,23.480 33.000,25.530 33.000,28.000 ZM25.000,28.000 C25.000,29.657 26.343,31.000 28.000,31.000 C29.657,31.000 31.000,29.657 31.000,28.000 C31.000,26.343 29.657,25.000 28.000,25.000 C26.343,25.000 25.000,26.343 25.000,28.000 ZM31.630,42.554 C23.593,44.559 15.451,39.668 13.446,31.631 C12.573,28.129 13.015,24.613 14.451,21.590 C15.516,19.349 16.909,20.888 16.047,22.901 C14.971,25.416 14.673,28.288 15.387,31.146 C17.124,38.113 24.180,42.351 31.146,40.613 C38.113,38.876 42.351,31.820 40.613,24.854 C38.876,17.887 31.820,13.649 24.854,15.387 C24.275,15.531 23.719,15.716 23.182,15.934 C21.382,16.665 19.935,15.157 22.082,14.224 C22.810,13.908 23.573,13.645 24.370,13.446 C32.407,11.441 40.549,16.332 42.554,24.369 C44.559,32.407 39.668,40.549 31.630,42.554 Z" style="fill: url(#Gradient2);"/>
  </g>
</svg>
