<?xml version="1.0" encoding="utf-8"?>
<!-- Generator: Adobe Illustrator 17.0.0, SVG Export Plug-In . SVG Version: 6.00 Build 0)  -->
<!DOCTYPE svg PUBLIC "-//W3C//DTD SVG 1.1//EN" "http://www.w3.org/Graphics/SVG/1.1/DTD/svg11.dtd">
<svg version="1.1" id="图层_1" xmlns="http://www.w3.org/2000/svg" xmlns:xlink="http://www.w3.org/1999/xlink" x="0px" y="0px"
	 width="80" height="40" viewBox="0 0 80 40" enable-background="new 0 0 80 40" xml:space="preserve">
<g>
	<path fill="#fff" d="M61.736,1.956c0.81,0.113,1.619-0.343,2.18-0.974c0,0-0.849,0.24-1.599,0.141
		c-0.75-0.099-1.429-0.157-2.102,0.131c-0.75,0.321-1.458,1.19-1.458,1.19s0.962-0.452,1.371-0.551
		C60.547,1.792,60.937,1.845,61.736,1.956z"/>
	<path fill="#fff" d="M78.382,5.441c-0.713-0.069-1.482-0.599-2.258,0.079c-0.778,0.68-2.172,0.794-2.172,0.794
		s2.018,0.543,2.951,0.428C79.169,6.462,80,5.032,80,5.032S79.258,5.526,78.382,5.441z"/>
	<path fill="#fff" d="M65.816,5.527c1.059,0.234,1.437,0.449,2.403,0.35c0.973-0.099,1.471-0.453,2.484-1.277
		c1.099-0.894,2.649-1.095,2.88-0.929c0.231,0.166-0.464-0.6-1.41-0.784c-0.946-0.184-2.329-0.249-3.302,0.445
		c-0.421,0.3-1,0.886-1.846,1.431c-0.697,0.45-2.637,0.52-2.725,0.601C64.212,5.445,65.213,5.394,65.816,5.527z"/>
	<path fill="#fff" d="M71.33,8.893c-3.427-0.532-5.246,2.176-6.41,2.34c-2.1,0.295-2.266-0.522-4.007-0.156
		c-1.546,0.325-2.667,1.16-3.349,1.382c-0.646,0.21-2.87,1.299-4.288,0.78c-0.552-0.202-0.528-1.641,0.946-2.149
		c1.002-0.345,2.577-0.245,3.532-0.67c0.955-0.425,1.255-0.906,2.469-1.081c1.214-0.175,1.587-0.58,2.048-1.288
		c0.43-0.661,1.449-1.269,1.67-1.284c0.221-0.014-1.543-0.325-2.402,0.071c-0.859,0.396-2.112,0.963-3.387,1.001
		c-1.299,0.039-0.962-1.162-0.303-1.342c0.659-0.181,1.171-0.146,1.617-0.362c0.145-0.07,0.291-0.091,0.798-0.704
		c0.506-0.613,2.144-0.705,2.144-0.705s-1.534-0.643-3.343-0.117c-1.809,0.526-1.906,0.603-3.271,0.191
		c-1.141-0.344-1.312-0.573-2.601-0.58c-1.288-0.007-2.178,0.538-2.178,0.538s0.726-1.913,2.469-2.2
		c1.371-0.226,1.548,0.272,2.48-0.05c0.835-0.288,1.508-1.453,1.508-1.453s-0.91,0.426-1.695,0.551
		c-0.483,0.077-1.122-0.163-1.496-0.263c-0.374-0.1-1.023-0.414-2.225,0.12c-1.202,0.534-2.072,1.14-3.646,1.199
		c-1.574,0.059-2.324-1.337-4.941-0.623c-1.157,0.316-1.786,1.03-3.633,1.773c-1.807,0.727-2.293,0.651-3.092,0.37
		c-0.33-0.116-0.734-0.997,0.837-2.011c0.987-0.638,3.571-0.718,3.702-0.714c0.178,0.005-2.999-1.096-4.789-1.005
		c-0.842,0.043-1.798,0.211-2.768,0.616c-1.05,0.438-2.066,1.447-2.351,1.291c-0.285-0.156-0.222-0.537,0.561-1.127
		c0.449-0.338,2.243-1.052,2.243-1.052s-2.206-0.601-3.627,0.413c-0.717,0.512-1.393,1.428-1.822,2.045
		c-0.53,0.763-0.759,1.263-1.949,1.586c-1.19,0.323-5.311,1.121-8.268,2.607c-1.72,0.864-2.655,1.654-3.776,2.706
		c-1.275,1.196-2.228,2.23-2.655,2.781c-0.046,0.059,1.322-1.037,2.977-1.279c0.537-0.079,5.024-0.562,6.146-1.088
		c1.122-0.526,3.996-2.612,6.129-3.908c2.133-1.296,3.102-1.551,4.104-1.679c1.002-0.128,2.592,0.276,2.592,0.276
		s-1.172,0.15-2.019,0.877c-0.88,0.755-0.522,1.698-1.645,1.779c-2.534,0.183-3.858,1.998-4.561,2.694
		c1.671-0.067,3.489-0.156,5.161-0.127c2.626,0.045,7.028,0.334,8.455,0.454c1.427,0.12,2.424-1.154,5.029-1.066
		c3.313,0.112,4.66-0.106,5.539-0.475c0.935-0.394,1.636-1.088,2.475-1.434c0.96-0.396,1.683,0.13,1.683,0.13
		s-1.022,0.1-1.527,0.686c-0.535,0.621-0.731,1.738-2.712,2.333c-1.645,0.494-3.962,0.789-3.386,1.02
		c0.576,0.231,3.187,0.746,4.289,2.687c0.714,1.258,0.763,2.973,0.43,4.598c-0.167,0.816,1.31-1.603,3.553-2.405
		c0.83-0.297,1.523,0.017,1.523,0.017s-0.751,0.058-1.673,0.659c-0.595,0.388-0.612,0.775-1.496,1.754
		c-0.972,1.077-1.937,0.624-2.144,1.228c-0.468,1.365-2.884,6.771-3.241,7.423c-0.357,0.653,1.498,0.179,2.318-0.533
		c1.339-1.162,2.465-1.138,2.465-1.138s-1.635,0.6-1.942,2.315c-0.399,2.23-3.169,3.793-3.968,3.922
		c-0.804,0.13-1.384-0.1-1.53,0.146c-0.147,0.246-0.564,0.953-0.845,1.427c-1.3,2.19-2.696,4.324-4.178,6.391
		c0.273-0.021,0.471-0.112,1.617-0.465c0.933-0.287,1.56-0.657,1.946-0.743c1.002-0.224,1.873-0.109,1.873-0.109
		s-1.279,1.006-1.613,1.175c0,0,3.08,0.18,3.989-0.237c1.488-0.683,2.022-1.138,2.685-1.56c0.608-0.387,1.499-0.797,1.499-0.797
		s-1.795,0.202-2.902,0.199c-1.04-0.003-1.937-0.705-2.909-0.645c-0.513,0.032-1.049,0.022-1.049,0.022s1.44-0.295,1.962-1.038
		c0.521-0.743,0.776-1.389,2.49-1.317c1.714,0.072,2.848,0.154,4.025-0.232c1.147-0.376,2.393-2.806,2.393-2.806
		s-1.569,0.67-2.555,0.739c-1.259,0.088-2.031-0.714-2.754-0.664c-0.516,0.036-1.169,0.168-1.169,0.168s2.019-0.901,2.506-1.908
		c0.345-0.714,0.508-1.263,2.086-1.403c1.958-0.174,2.205-0.121,2.863-0.463c0.968-0.503,1.374-1.473,1.791-1.931
		c0.523-0.576,1.418-0.293,1.418-0.293s-0.396-0.785-1.457-0.581c-0.781,0.15,1.049-2.767,2.987-2.572
		c1.938,0.194,2.872,0.001,3.994-0.745c1.171-0.778,2.29-2.329,2.68-2.55c0.399-0.226,0.724,0.023,0.724,0.023
		s-0.4-0.76-1.509-0.582c-1.109,0.178-2.181,2.038-3.911,1.931c-0.827-0.051-1.954-1.07-2.945-1.152
		c-0.991-0.082-1.593,0.291-2.21,0.577c-0.346,0.161-3.193,1.606-3.757,0.905c-0.564-0.701,1.78-2.25,2.101-2.478
		c0.321-0.228,2.456-1.665,4.008-1.705c2.226-0.057,4.157,0.276,4.97-0.095c1.88-0.858,2.875-3.247,3.967-4.868
		c0.635-0.943,2.1-0.733,3.11-1.027c1.048-0.305,2.628-1.88,2.628-1.88S74.757,9.425,71.33,8.893z"/>
	<path fill="#fff" d="M69.449,16.919c-0.453,0.422-1.524,0.748-1.524,0.748s1.607,0.252,2.253-0.307
		c0.509-0.44,1.324-1.038,1.599-0.924C71.777,16.437,70.296,16.129,69.449,16.919z"/>
	<path fill="#fff" d="M78.082,10.049c-0.495,0.118-0.907,0.042-1.396,0.235c-0.392,0.154-0.953,0.641-0.953,0.641
		s0.287-0.109,0.913-0.166c0.283-0.026,0.647,0.012,1.066-0.019c1.131-0.084,1.381-1.211,1.387-1.388
		C79.1,9.352,78.808,9.876,78.082,10.049z"/>
	<path fill="#fff" d="M31.215,34.074l0.74-1.294h-0.732l2.892-5.106c0,0-0.036,0-0.169-0.003
		c-0.299-0.006,0.32-0.556,0.32-0.556s-0.216-0.033-0.433,0.073c-0.25,0.122-0.688,0.373-1.003,0.446
		c-0.143,0.033-0.368,0.011-0.368,0.011l-2.915,5.134h-0.402l2.428-4.401l-0.17,0.003c0,0-0.305-0.069-0.057-0.447
		c0.248-0.378,0.596-0.487,0.596-0.487c-0.034-0.033-0.574-0.05-0.989,0.305c-0.239,0.205-0.444,0.424-0.537,0.518
		c-0.109,0.109-0.27,0.172-0.349,0.139c-0.277-0.115,0.201-0.458,0.201-0.458s-0.392,0.094-0.543,0.303
		c-0.182,0.251-0.099,0.396-0.093,0.499c0.011,0.205-0.049,0.436-0.049,0.436l-1.153,2.123c0,0-0.128-0.171-0.072-0.334
		c0.034-0.099,0.128-0.236,0.17-0.256c0,0-0.164-0.063-0.404,0.217c-0.152,0.177-0.259,0.5-0.208,0.835
		c0.054,0.354-1.106,2.295-1.106,2.295l1.603,0.002c0,0-1.489,1.614-1.702,1.848c-0.213,0.233-0.367-0.178-0.335-0.334
		c0.056-0.275,0.411-0.442,0.411-0.442s-0.935,0.049-0.938,0.925c-0.033,0.394-0.093,0.871-0.291,1.204
		c-0.199,0.334-2.196,2.466-2.196,2.466h1.807l2.698-3.018l-1.271,3.018h1.542l2.53-5.664H31.215z"/>
	<path fill="#fff" d="M31.449,37.743c-0.073-0.001-0.329,0.028-0.473,0.184c-0.165,0.178-0.563,0.08-0.418-0.232
		c0.251-0.54,0.625-0.471,0.625-0.471c-0.247-0.147-1.124,0.098-1.454,0.884c-0.149,0.355-0.75,1.63-0.75,1.63h1.633
		c0,0,0.549-1.253,0.593-1.408c0.019-0.066-0.039-0.112-0.069-0.203C31.07,37.921,31.449,37.743,31.449,37.743z"/>
	<path fill="#fff" d="M42.434,28.408c0.512-0.468,0.233-0.67,0.233-0.67c0.015,0.019-0.019,0.112-0.11,0.182
		c-0.248,0.193-0.643,0.237-0.879,0.374c-0.261,0.151-0.367,0.277-0.577,0.579c-0.103,0.147-0.707,1.169-0.707,1.169h1.44
		c0,0,0.532-0.924,0.557-0.967c0.056-0.094,0.118-0.171,0.092-0.345c-0.018-0.124,0.283-0.28,0.283-0.28s-0.226,0.018-0.305,0.065
		c-0.103,0.061-0.167,0.111-0.232,0.268c-0.073,0.179-0.173,0.256-0.173,0.256s-0.136-0.077-0.011-0.258
		C42.132,28.656,42.312,28.52,42.434,28.408z"/>
	<path fill="#fff" d="M38.035,38.32c-0.103,0.163-0.313,0.281-0.313,0.281s-0.087-0.248,0.287-0.572
		c0.23-0.2,0.404-0.233,0.525-0.459c0.23-0.427-0.08-0.504-0.08-0.504c0.02,0.02-0.082,0.3-0.169,0.389
		c-0.372,0.377-1.011,0.288-1.447,0.789c-0.198,0.228-0.352,0.61-0.421,0.797c-0.069,0.187-0.245,0.696-0.245,0.696h1.728
		c0,0,0.491-1.423,0.57-1.556c0.086-0.144,0.329-0.221,0.329-0.221s-0.194,0.01-0.433,0.098
		C38.234,38.107,38.105,38.209,38.035,38.32z"/>
	<path fill="#fff" d="M33.168,37.793c-0.557-0.285,0.399-0.651,0.399-0.651s-0.645,0.085-1.128,0.405
		c-0.444,0.295-0.513,0.646-0.513,0.646c-0.004,0.008-0.578,1.543-0.578,1.543h1.728l0.592-1.638
		C33.702,37.903,33.362,37.892,33.168,37.793z"/>
	<path fill="#fff" d="M33.23,36.792l5.113-8.12c-0.001-0.002-0.002,0.002-0.003,0H36.3c0,0,0.28-0.469,0.439-0.734
		c0.246-0.426,0.78-0.397,0.78-0.397s-0.124-0.145-0.402-0.118c-0.297,0.029-0.784,0.269-1.011,0.259c-0.023-0.001-1.144,0-1.144,0
		l-1.47,2.445c0,0,0,0.005,0.003,0.005l1.769,0.003l0,0l-0.605,1.003h-1.273c0,0-0.01-0.602-0.497-0.642
		c-0.008-0.001,0.263,0.305-0.035,0.717c-0.34,0.471,0.017,0.581-0.113,0.835c-0.262,0.511,0.056,0.678,0.119,0.678
		c0.063,0,0.855,0,0.855,0L33.27,33.44h-1.407l-0.926,1.413h1.482l-1.363,1.938H33.23z"/>
	<path fill="#fff" d="M35.755,38.137c-0.211-0.141,0.225-0.347,0.467-0.491c0.38-0.226,0.629-0.763,0.575-0.695
		c-0.054,0.068-0.174,0.172-0.312,0.265c-0.479,0.322-0.648,0.296-0.774,0.321c-0.126,0.025-0.323,0.018-0.569,0.097
		c-0.339,0.11-0.539,0.372-0.546,0.375c-0.057,0.029-0.085-0.108,0.124-0.358c0,0-0.329,0.166-0.428,0.554
		c-0.035,0.139-0.544,1.532-0.544,1.532h1.728l0.412-1.1C35.986,38.294,35.931,38.255,35.755,38.137z"/>
	<path fill="#fff" d="M39.283,32.837c0,0-0.014,0.501-0.244,0.974c-0.137,0.282-0.372,0.484-0.405,0.33
		c-0.033-0.154-0.031-1.95-0.031-1.95l1.845,0.002c0.006,0,0.013-0.001,0.019-0.001c0.396,0,0.521-0.206,0.756-0.35
		c0.352-0.216,1.294-0.452,1.558-1.11c0.145-0.362,1.094-1.039,1.094-1.039s-0.492,0.067-0.895,0.224
		c-0.554,0.216-0.825,0.579-1.9,0.568c-0.539-0.006-1.517-0.002-1.517-0.002l1.737-2.799c0,0-0.189,0.006-0.309,0
		c-0.261-0.014-0.227-0.478-0.577-0.642c-0.37-0.172-0.544-0.116-0.544-0.116s0.251,0.293-0.027,0.603
		c-0.123,0.137-0.375,0.154-0.375,0.154l-5.739,9.107h1.851l0.923-1.434l0.205,1.434h1.901l0-0.358
		c0.086-0.46,0.831-1.056,0.57-1.508c-0.222-0.383,0.236-0.53,0.306-0.741c0.131-0.396,0.1-0.507,0.066-0.802
		C39.53,33.181,39.283,32.837,39.283,32.837z"/>
	<polygon fill="#fff" points="12.664,31.13 0.924,31.13 0,32.718 11.74,32.718 	"/>
	<polygon fill="#fff" points="16.819,35.751 18.458,35.751 19.405,34.165 17.789,34.165 18.673,32.714 20.327,32.714 
		21.299,31.097 19.665,31.097 20.575,29.607 22.149,29.607 23.139,28.004 21.555,28.004 22.23,26.899 20.328,26.899 19.643,28.017 
		16.93,28.017 15.963,29.607 18.69,29.607 17.796,31.097 15.498,31.097 14.528,32.7 16.746,32.7 13.49,38.055 12.412,38.055 
		14.727,34.301 12.829,34.301 9.548,39.698 22.26,39.698 23.324,38.055 15.41,38.055 	"/>
	<polygon fill="#fff" points="25.471,33.521 28.892,28.102 23.983,28.102 23.047,29.65 25.793,29.65 24.347,31.931 
		21.363,31.931 18.242,37.208 23.221,37.208 24.254,35.603 21.41,35.603 22.619,33.521 	"/>
	<path fill="#fff" d="M6.048,25.378l1.654-1.138L7.9,25.378h2.243l-0.449-2.551l2.487-1.876l3.783-6.088l-3.017-0.004
		l0.74-1.138l-2.252,0.003l-0.705,1.131l-0.994-0.002l-1.022,1.612l1.013-0.001l-2.674,4.291l0.243,1.773l-4.046,2.85H6.048z
		 M11.904,16.461l0.977-0.001l-2.337,3.806l-1.17,0.942L9.246,20.47L11.904,16.461z"/>
	<polygon fill="#fff" points="18.033,17.475 14.922,17.475 13.888,19.063 17.004,19.063 13.908,23.839 10.562,25.945 
		13.289,25.945 15.365,24.792 19.078,19.063 21.58,19.063 22.614,17.475 20.284,17.475 24.618,13.305 18.056,13.313 16.978,14.964 
		20.564,14.959 18.076,17.409 	"/>
	<path fill="#fff" d="M18.503,25.368h3.426h1.92h0.094l4.258-6.335l0.942,0l-1.596,2.381l2.159,0.003l2.69-4.034
		l-3.085,0l2.401-3.572l-5.53,0.007L18.503,25.368z M28.533,15.466l-1.28,1.919h-0.816l-1.09,1.649l0.806,0l-3.103,4.653h-1.357
		l5.468-8.22L28.533,15.466z"/>
	<polygon fill="#fff" points="35.927,13.417 35.168,14.586 31.724,14.59 30.623,16.24 34.097,16.236 28.615,24.681 
		26.058,24.681 25.164,26.036 29.749,26.036 29.814,25.938 29.822,25.938 30.283,25.227 30.643,24.681 30.637,24.681 36.12,16.233 
		37.12,16.232 38.221,14.582 37.191,14.583 37.95,13.414 	"/>
	<polygon fill="#fff" points="35.075,20.186 37.718,20.183 32.581,26.057 35.138,26.057 40.118,20.18 42.354,20.177 
		40.348,23.497 41.661,26.057 44.239,26.057 42.865,23.082 44.495,20.174 47.839,20.17 48.96,18.441 43.539,18.448 46.804,13.305 
		44.687,13.308 41.398,18.451 36.113,18.457 	"/>
	<polygon fill="#fff" points="49.667,14.005 47.541,14.008 44.84,17.995 46.965,17.995 	"/>
	<polygon fill="#fff" points="40.947,14.017 38.291,17.995 40.416,17.995 43.074,14.014 	"/>
</g>
</svg>
